<svg width="264" height="128" viewBox="0 0 264 128" fill="none" xmlns="http://www.w3.org/2000/svg">
<path fill-rule="evenodd" clip-rule="evenodd" d="M50.5321 30.0057C49.8626 30.0107 49.0227 30.0194 47.8813 30.0333C46.0595 30.0814 44.6774 30.1916 43.3229 30.4322C41.6725 30.7249 40.1783 31.2067 38.7497 31.9263C37.2979 32.6559 35.9684 33.6106 34.8149 34.7521C33.6627 35.8899 32.6958 37.2055 31.9542 38.6451C31.2253 40.0606 30.7372 41.5413 30.4384 43.1808C30.1944 44.5228 30.0837 45.8867 30.0353 47.6697L30.0187 48.4125C30.0143 48.6675 30.0109 48.9314 30.0085 49.2092L30.0006 50.8227L30.0007 77.2119L30.0056 78.3626C30.0094 79.0954 30.0185 79.7259 30.0353 80.3317C30.0838 82.1133 30.1945 83.4776 30.4383 84.8175C30.7373 86.4583 31.2255 87.9399 31.9541 89.3547C32.696 90.7935 33.6625 92.1087 34.8157 93.2487C35.9703 94.3901 37.2999 95.3452 38.7514 96.0746C40.1783 96.7934 41.6725 97.2751 43.3235 97.5679C44.5543 97.7866 45.8084 97.8975 47.3735 97.9517L48.5464 97.9803C49.1563 97.9888 50.0577 97.9936 51.8573 97.9991L77.377 97.9951C78.0535 97.9905 78.8711 97.982 80.1197 97.9668C81.9416 97.9186 83.3237 97.8085 84.6782 97.5678C86.3286 97.2751 87.8228 96.7934 89.2514 96.0738C90.7017 95.3443 92.0319 94.389 93.1853 93.2487C94.3393 92.108 95.3059 90.7922 96.046 89.3543C96.7755 87.9401 97.2641 86.4575 97.5618 84.8166C97.7836 83.5977 97.8961 82.3549 97.951 80.8049L97.9658 80.3304C97.9759 79.9677 97.9832 79.5956 97.9882 79.1982L98 76.0704L97.9981 50.2018L97.9882 48.8019C97.9832 48.4044 97.9759 48.0319 97.9657 47.6684C97.9175 45.894 97.8058 44.5246 97.5617 43.1817C97.2642 41.542 96.7757 40.0603 96.0452 38.6441C95.3061 37.2068 94.3391 35.8906 93.1845 34.7505C92.0338 33.6117 90.7037 32.6568 89.2503 31.9258C87.8228 31.2067 86.3286 30.7249 84.6776 30.4321C83.4468 30.2135 82.1927 30.1025 80.6276 30.0484L79.2806 30.0176C79.1734 30.0163 79.0573 30.0151 78.9298 30.014L50.5321 30.0057Z" fill="#1A1A1A" fill-opacity="0.01"/>
<path fill-rule="evenodd" clip-rule="evenodd" d="M47.9057 32.0331L50.6432 32.005L79.1264 32.016C79.5583 32.0204 79.8268 32.0258 80.0954 32.0331C81.5075 32.0706 82.9319 32.1533 84.3284 32.4014C85.7461 32.6528 87.0645 33.0641 88.3516 33.7125C89.6165 34.3487 90.7754 35.1801 91.7793 36.1737C92.7832 37.1649 93.6242 38.3095 94.2678 39.561C94.9247 40.8346 95.3397 42.138 95.594 43.5395C95.845 44.92 95.9286 46.3281 95.9665 47.7241C95.9844 48.3647 95.9922 49.0054 95.9955 49.6471L95.9994 50.788L96 76.0704C96 76.8313 96 77.5921 95.9955 78.3541C95.9922 78.9947 95.9844 79.6354 95.9665 80.276C95.9286 81.6709 95.845 83.0801 95.594 84.4595C95.3397 85.861 94.9247 87.1655 94.2678 88.4391C93.6242 89.6895 92.7832 90.8341 91.7793 91.8265C90.7754 92.8189 89.6165 93.6514 88.3516 94.2876C87.0645 94.936 85.7461 95.3473 84.3284 95.5987C82.9319 95.8468 81.5075 95.9295 80.0954 95.967L75.8412 96.0001L48.8739 95.9841C48.442 95.9797 48.1739 95.9743 47.9057 95.967C46.4936 95.9295 45.0692 95.8468 43.6727 95.5987C42.2551 95.3473 40.9367 94.936 39.6495 94.2876C38.3835 93.6514 37.2257 92.8189 36.2218 91.8265C35.218 90.8341 34.3769 89.6895 33.7322 88.4391C33.0764 87.1655 32.6614 85.861 32.406 84.4595C32.155 83.0801 32.0725 81.6709 32.0346 80.276C32.0167 79.6354 32.0089 78.9947 32.0056 78.3541L32.0007 77.2118L32 51.9297C32 51.1688 32 50.4069 32.0056 49.6471C32.0089 49.0054 32.0167 48.3647 32.0346 47.7241C32.0725 46.3281 32.155 44.92 32.406 43.5395C32.6614 42.138 33.0764 40.8346 33.7322 39.561C34.3769 38.3095 35.218 37.1649 36.2218 36.1737C37.2257 35.1801 38.3835 34.3487 39.6495 33.7125C40.9367 33.0641 42.2551 32.6528 43.6727 32.4014C45.0692 32.1533 46.4936 32.0706 47.9057 32.0331Z" fill="#1A1A1A" fill-opacity="0.01"/>
<mask id="mask0_118_132" style="mask-type:alpha" maskUnits="userSpaceOnUse" x="32" y="32" width="64" height="64">
<path fill-rule="evenodd" clip-rule="evenodd" d="M47.9057 32.0331L50.6432 32.005L79.1264 32.016C79.5583 32.0204 79.8268 32.0258 80.0954 32.0331C81.5075 32.0706 82.9319 32.1533 84.3284 32.4014C85.7461 32.6528 87.0645 33.0641 88.3516 33.7125C89.6165 34.3487 90.7754 35.1801 91.7793 36.1737C92.7832 37.1649 93.6242 38.3095 94.2678 39.561C94.9247 40.8346 95.3397 42.138 95.594 43.5395C95.845 44.92 95.9286 46.3281 95.9665 47.7241C95.9844 48.3647 95.9922 49.0054 95.9955 49.6471L95.9994 50.788L96 76.0704C96 76.8313 96 77.5921 95.9955 78.3541C95.9922 78.9947 95.9844 79.6354 95.9665 80.276C95.9286 81.6709 95.845 83.0801 95.594 84.4595C95.3397 85.861 94.9247 87.1655 94.2678 88.4391C93.6242 89.6895 92.7832 90.8341 91.7793 91.8265C90.7754 92.8189 89.6165 93.6514 88.3516 94.2876C87.0645 94.936 85.7461 95.3473 84.3284 95.5987C82.9319 95.8468 81.5075 95.9295 80.0954 95.967L75.8412 96.0001L48.8739 95.9841C48.442 95.9797 48.1739 95.9743 47.9057 95.967C46.4936 95.9295 45.0692 95.8468 43.6727 95.5987C42.2551 95.3473 40.9367 94.936 39.6495 94.2876C38.3835 93.6514 37.2257 92.8189 36.2218 91.8265C35.218 90.8341 34.3769 89.6895 33.7322 88.4391C33.0764 87.1655 32.6614 85.861 32.406 84.4595C32.155 83.0801 32.0725 81.6709 32.0346 80.276C32.0167 79.6354 32.0089 78.9947 32.0056 78.3541L32.0007 77.2118L32 51.9297C32 51.1688 32 50.4069 32.0056 49.6471C32.0089 49.0054 32.0167 48.3647 32.0346 47.7241C32.0725 46.3281 32.155 44.92 32.406 43.5395C32.6614 42.138 33.0764 40.8346 33.7322 39.561C34.3769 38.3095 35.218 37.1649 36.2218 36.1737C37.2257 35.1801 38.3835 34.3487 39.6495 33.7125C40.9367 33.0641 42.2551 32.6528 43.6727 32.4014C45.0692 32.1533 46.4936 32.0706 47.9057 32.0331Z" fill="white"/>
</mask>
<g mask="url(#mask0_118_132)">
<rect x="32" y="32" width="64" height="64" fill="#19AA1E"/>
<path fill-rule="evenodd" clip-rule="evenodd" d="M32 32H96V53L32 43V32Z" fill="#FFB919"/>
<path fill-rule="evenodd" clip-rule="evenodd" d="M32 89L96 79V96H32V89Z" fill="#82D714"/>
<path fill-rule="evenodd" clip-rule="evenodd" d="M32 41.7349L54.3397 45.2254C57.1206 43.4651 60.429 42.5 64 42.5C68.946 42.5 73.3883 44.3515 76.6229 47.6027C77.0311 48.013 77.4161 48.442 77.7771 48.8875L96 51.7348V54.2651L79.6275 51.707C80.8438 54.0412 81.5 56.6419 81.5 59.296C81.5 62.7248 80.733 66.1436 79.1477 69.5759L79.0994 69.6799L78.4261 71.1227H76.8339C73.5462 71.1227 71.3653 72.1062 69.9395 73.8491C68.8199 75.2176 68.1725 77.0624 67.9547 79.0753L67.9481 79.1382L67.9162 79.4598L67.9027 79.5997L67.8768 79.8734C67.7935 80.7721 67.7377 81.5342 67.7094 82.1553L96 77.7348V80.2651L32 90.2651V87.7348L60.3225 83.3094L60.31 82.7413L60.3063 82.5811L60.3039 82.499L60.2996 82.3722C60.274 81.6834 60.2109 80.8004 60.1098 79.7303L60.0904 79.5274L60.0558 79.176C59.8525 77.1525 59.2148 75.2843 58.0982 73.8955C56.6873 72.1407 54.5265 71.1428 51.2652 71.123L51.1661 71.1227H49.5739L48.9006 69.6799C47.2825 66.2126 46.5 62.7595 46.5 59.296C46.5 54.9405 48.267 50.7288 51.3771 47.6027C51.4669 47.5125 51.5576 47.4233 51.6492 47.3353L32 44.2651V41.7349Z" fill="white"/>
<path fill-rule="evenodd" clip-rule="evenodd" d="M64 45C72.935 45 79 51.8773 79 59.296C79 62.2744 78.3502 65.3736 76.8339 68.6227C68.0419 68.6227 65.8717 74.9191 65.4614 78.8807L65.4351 79.1447C65.2961 80.5586 65.2156 81.6931 65.1937 82.5484L62.8123 82.9204L62.8117 82.8434C62.8027 81.9469 62.718 80.6893 62.5576 79.0706L62.5505 79C62.1715 75.0469 60.0469 68.6227 51.1661 68.6227C49.6498 65.3736 49 62.2744 49 59.296C49 51.8773 55.065 45 64 45Z" fill="#0073FA"/>
</g>
<path fill-rule="evenodd" clip-rule="evenodd" d="M125.6 47.5C117.8 47.5 111.95 52.25 112 60.5H119.25C119.15 57.2 121.25 54 125.6 54C128.9 54 131 56.2 131 59C131 61.9 128.7 63.5 125 65.3C120.15 67.65 117.25 68.75 112 70.5V80H139V73.5H121.8C124.306 72.4553 126.746 71.3081 128.95 70.25C134.8 67.45 138.25 64.3 138.25 58.65C138.25 51.85 133.15 47.5 125.6 47.5ZM150 54.5H164V48H143V80H150V54.5ZM175 48H168V80H174.95L188 59.55V80H195V48H188L175 68.45V48ZM230.15 68H222.9C221.8 71.55 218.45 74 214.5 74C208.75 74 205 69.05 205 64C205 58.95 208.65 54 214.7 54C218.7 54 221.8 56.45 222.9 60H230.15C229.1 52.85 223.45 47.5 214.5 47.5C204.6 47.5 198 54.45 198 64C198 73.55 204.6 80.5 214.5 80.5C223.45 80.5 229.1 75.25 230.15 68Z" fill="#1A1A1A"/>
</svg>
