<svg width="8" height="11" viewBox="0 0 8 11" fill="none" xmlns="http://www.w3.org/2000/svg">
<path d="M6.35375 6.0875C6.02625 6.75125 5.5825 7.4125 5.12875 8.00625C4.69831 8.56601 4.23806 9.1022 3.75 9.6125C3.26193 9.10221 2.80168 8.56602 2.37125 8.00625C1.9175 7.4125 1.47375 6.75125 1.14625 6.0875C0.815 5.41687 0.625 4.78875 0.625 4.25C0.625 3.4212 0.95424 2.62634 1.54029 2.04029C2.12634 1.45424 2.9212 1.125 3.75 1.125C4.5788 1.125 5.37366 1.45424 5.95971 2.04029C6.54576 2.62634 6.875 3.4212 6.875 4.25C6.875 4.78875 6.68438 5.41687 6.35375 6.0875ZM3.75 10.5C3.75 10.5 7.5 6.94625 7.5 4.25C7.5 3.25544 7.10491 2.30161 6.40165 1.59835C5.69839 0.895088 4.74456 0.5 3.75 0.5C2.75544 0.5 1.80161 0.895088 1.09835 1.59835C0.395088 2.30161 1.48201e-08 3.25544 0 4.25C0 6.94625 3.75 10.5 3.75 10.5Z" fill="#828282"/>
<path d="M3.75 5.5C3.41848 5.5 3.10054 5.3683 2.86612 5.13388C2.6317 4.89946 2.5 4.58152 2.5 4.25C2.5 3.91848 2.6317 3.60054 2.86612 3.36612C3.10054 3.1317 3.41848 3 3.75 3C4.08152 3 4.39946 3.1317 4.63388 3.36612C4.8683 3.60054 5 3.91848 5 4.25C5 4.58152 4.8683 4.89946 4.63388 5.13388C4.39946 5.3683 4.08152 5.5 3.75 5.5ZM3.75 6.125C4.24728 6.125 4.72419 5.92746 5.07583 5.57583C5.42746 5.22419 5.625 4.74728 5.625 4.25C5.625 3.75272 5.42746 3.27581 5.07583 2.92417C4.72419 2.57254 4.24728 2.375 3.75 2.375C3.25272 2.375 2.77581 2.57254 2.42417 2.92417C2.07254 3.27581 1.875 3.75272 1.875 4.25C1.875 4.74728 2.07254 5.22419 2.42417 5.57583C2.77581 5.92746 3.25272 6.125 3.75 6.125Z" fill="#828282"/>
</svg>
