<svg width="18" height="18" viewBox="0 0 18 18" fill="none" xmlns="http://www.w3.org/2000/svg">
<path d="M0.126916 2.77942C-0.164093 1.98276 0.0549137 1.10058 0.685684 0.532716C1.31495 -0.0328989 2.21123 -0.160425 2.97176 0.2094L16.5397 6.54368C17.2672 6.88425 17.7877 7.50613 17.9985 8.24878H3.03401L0.169667 2.87469C0.153917 2.84393 0.139666 2.81168 0.126916 2.77942ZM3.04451 9.74983L0.229669 15.1322C0.213919 15.1622 0.200418 15.1922 0.189168 15.2237C-0.101091 16.0211 0.120166 16.9018 0.750936 17.4689C1.1417 17.8192 1.63522 18 2.13173 18C2.43849 18 2.746 17.931 3.03251 17.7907L16.5412 11.4609C17.271 11.1189 17.7907 10.4947 18 9.75058H3.04451V9.74983Z" fill="url(#paint0_linear_519_1489)"/>
<defs>
<linearGradient id="paint0_linear_519_1489" x1="15.5926" y1="-22.5" x2="-1.37962" y2="-20.2441" gradientUnits="userSpaceOnUse">
<stop stop-color="#FFD02b"/>
<stop offset="1" stop-color="#96E7B7"/>
</linearGradient>
</defs>
</svg>
